<svg width="40" height="40" viewBox="0 0 40 40" fill="none" xmlns="http://www.w3.org/2000/svg">
<g clip-path="url(#clip0_2_4162)">
<path fill-rule="evenodd" clip-rule="evenodd" d="M8.75 25C8.41848 25 8.10054 24.8683 7.86612 24.6339C7.6317 24.3995 7.5 24.0815 7.5 23.75V3.75C7.5 3.41848 7.6317 3.10054 7.86612 2.86612C8.10054 2.6317 8.41848 2.5 8.75 2.5H31.25C31.5815 2.5 31.8995 2.6317 32.1339 2.86612C32.3683 3.10054 32.5 3.41848 32.5 3.75V23.75C32.5 24.0815 32.3683 24.3995 32.1339 24.6339C31.8995 24.8683 31.5815 25 31.25 25H26.25C25.9185 25 25.6005 25.1317 25.3661 25.3661C25.1317 25.6005 25 25.9185 25 26.25C25 26.5815 25.1317 26.8995 25.3661 27.1339C25.6005 27.3683 25.9185 27.5 26.25 27.5H31.25C32.2446 27.5 33.1984 27.1049 33.9017 26.4017C34.6049 25.6984 35 24.7446 35 23.75V3.75C35 2.75544 34.6049 1.80161 33.9017 1.09835C33.1984 0.395088 32.2446 0 31.25 0L8.75 0C7.75544 0 6.80161 0.395088 6.09835 1.09835C5.39509 1.80161 5 2.75544 5 3.75V23.75C5 24.7446 5.39509 25.6984 6.09835 26.4017C6.80161 27.1049 7.75544 27.5 8.75 27.5H13.75C14.0815 27.5 14.3995 27.3683 14.6339 27.1339C14.8683 26.8995 15 26.5815 15 26.25C15 25.9185 14.8683 25.6005 14.6339 25.3661C14.3995 25.1317 14.0815 25 13.75 25H8.75Z" fill="#7DF5CA"/>
<path fill-rule="evenodd" clip-rule="evenodd" d="M19.115 39.635C19.2311 39.7514 19.369 39.8438 19.5209 39.9068C19.6728 39.9698 19.8356 40.0022 20 40.0022C20.1644 40.0022 20.3272 39.9698 20.4791 39.9068C20.6309 39.8438 20.7689 39.7514 20.885 39.635L28.385 32.135C28.6197 31.9003 28.7516 31.5819 28.7516 31.25C28.7516 30.9181 28.6197 30.5997 28.385 30.365C28.1503 30.1303 27.8319 29.9984 27.5 29.9984C27.1681 29.9984 26.8497 30.1303 26.615 30.365L21.25 35.7325V13.75C21.25 13.4185 21.1183 13.1005 20.8839 12.8661C20.6495 12.6317 20.3315 12.5 20 12.5C19.6685 12.5 19.3505 12.6317 19.1161 12.8661C18.8817 13.1005 18.75 13.4185 18.75 13.75V35.7325L13.385 30.365C13.1503 30.1303 12.8319 29.9984 12.5 29.9984C12.1681 29.9984 11.8497 30.1303 11.615 30.365C11.3803 30.5997 11.2484 30.9181 11.2484 31.25C11.2484 31.5819 11.3803 31.9003 11.615 32.135L19.115 39.635Z" fill="#386FFD"/>
</g>
<defs>
<clipPath id="clip0_2_4162">
<rect width="40" height="40" fill="white"/>
</clipPath>
</defs>
</svg>
