<svg width="40" height="40" viewBox="0 0 40 40" fill="none" xmlns="http://www.w3.org/2000/svg">
<g clip-path="url(#clip0_2_3684)">
<path fill-rule="evenodd" clip-rule="evenodd" d="M20.0087 0.000122023C8.96006 0.000122049 -0.0100097 8.97015 -0.0100097 20.0187C-0.0100097 31.0673 8.96006 40.0374 20.0087 40.0374C31.0573 40.0374 40.0273 31.0673 40.0273 20.0187C40.0273 8.97015 31.0573 0.000121997 20.0087 0.000122023ZM20.0087 2.79342C29.5156 2.79342 37.234 10.5118 37.234 20.0187C37.234 29.5257 29.5156 37.2441 20.0087 37.2441C10.5017 37.2441 2.78329 29.5257 2.78329 20.0187C2.78329 10.5118 10.5017 2.79342 20.0087 2.79342ZM25.2068 23.2011C24.1399 24.996 22.1815 26.2007 19.9438 26.2007C16.5677 26.2007 13.8267 23.4597 13.8267 20.0836C13.8267 16.7075 16.5677 13.9666 19.9438 13.9666C23.3199 13.9666 26.0608 16.7075 26.0608 20.0836C26.0608 20.8545 26.6866 21.4803 27.4574 21.4803C28.2283 21.4803 28.8541 20.8545 28.8541 20.0836C28.8541 15.1659 24.8615 11.1733 19.9438 11.1733C15.026 11.1733 11.0334 15.1659 11.0334 20.0836C11.0334 25.0014 15.026 28.9939 19.9438 28.9939C23.202 28.9939 26.0545 27.2418 27.608 24.6284C28.0018 23.9657 27.7836 23.108 27.121 22.7142C26.4584 22.3203 25.6007 22.5385 25.2068 23.2011Z" fill="#386FFD"/>
<path fill-rule="evenodd" clip-rule="evenodd" d="M37.234 20.0187C37.234 29.5257 29.5156 37.2441 20.0087 37.2441C10.5017 37.2441 2.78329 29.5257 2.78329 20.0187C2.78329 10.5118 10.5017 2.79342 20.0087 2.79342C24.7621 2.79342 29.0683 4.72326 32.1862 7.84116C32.7313 8.38623 33.6163 8.38623 34.1614 7.84116C34.7065 7.29613 34.7065 6.41108 34.1614 5.86601C30.5378 2.2424 25.533 0.00012201 20.0087 0.000122023C8.96006 0.000122049 -0.0100097 8.97015 -0.0100097 20.0187C-0.0100097 31.0673 8.96006 40.0374 20.0087 40.0374C31.0573 40.0374 40.0273 31.0673 40.0273 20.0187C40.0273 19.2479 39.4015 18.6221 38.6306 18.6221C37.8598 18.6221 37.234 19.2479 37.234 20.0187ZM30.7384 29.7566C30.9042 29.7821 31.0739 29.7953 31.2467 29.7953C33.0811 29.7953 34.5705 28.306 34.5705 26.4716C34.5705 24.6372 33.0811 23.1479 31.2467 23.1479C30.4796 23.1479 29.7728 23.4083 29.2099 23.8457L23.2273 20.6015C23.2538 20.4327 23.2675 20.2597 23.2675 20.0836C23.2675 18.2564 21.7898 16.7715 19.9653 16.76L19.9438 16.7599C18.1093 16.7599 16.62 18.2492 16.62 20.0836C16.62 21.9181 18.1093 23.4074 19.9438 23.4074L19.9653 23.4073C20.5852 23.4034 21.1652 23.2293 21.6606 22.9295L27.9261 26.327C27.924 26.375 27.923 26.4231 27.923 26.4716C27.923 27.0949 28.095 27.6784 28.3941 28.1773C26.2631 30.4013 23.2641 31.7873 19.9438 31.7873C13.4844 31.7873 8.24015 26.543 8.24015 20.0836C8.24015 13.6242 13.4844 8.38002 19.9438 8.38002C26.4032 8.38002 31.6474 13.6242 31.6474 20.0836C31.6474 20.8545 32.2732 21.4803 33.044 21.4803C33.8149 21.4803 34.4407 20.8545 34.4407 20.0836C34.4407 12.0826 27.9448 5.58672 19.9438 5.58672C11.9427 5.58672 5.44685 12.0826 5.44685 20.0836C5.44685 28.0847 11.9427 34.5806 19.9438 34.5806C24.2297 34.5806 28.0838 32.717 30.7384 29.7566ZM19.9438 19.5532C19.651 19.5532 19.4133 19.7909 19.4133 20.0836C19.4133 20.3764 19.651 20.6141 19.9438 20.6141L19.9574 20.6139C20.1196 20.6098 20.2638 20.5327 20.3583 20.4143C20.3644 20.4061 20.3705 20.3981 20.3767 20.3901C20.4381 20.3035 20.4742 20.1977 20.4742 20.0836C20.4742 19.7955 20.2439 19.5606 19.9574 19.5534L19.9438 19.5532Z" fill="#7DF5CA"/>
</g>
<defs>
<clipPath id="clip0_2_3684">
<rect width="40" height="40" fill="white"/>
</clipPath>
</defs>
</svg>
