<svg width="40" height="40" viewBox="0 0 40 40" fill="none" xmlns="http://www.w3.org/2000/svg">
<path d="M5 27.5001C4.31667 27.5001 3.75 26.9335 3.75 26.2501L3.75 13.7501C3.75 13.0668 4.31667 12.5001 5 12.5001C5.68333 12.5001 6.25 13.0668 6.25 13.7501L6.25 26.2501C6.25 26.9335 5.68333 27.5001 5 27.5001Z" fill="#386FFD"/>
<path d="M12.5 31.6668C11.8167 31.6668 11.25 31.1001 11.25 30.4168L11.25 9.58344C11.25 8.9001 11.8167 8.33344 12.5 8.33344C13.1833 8.33344 13.75 8.9001 13.75 9.58344L13.75 30.4168C13.75 31.1001 13.1833 31.6668 12.5 31.6668Z" fill="#7DF5CA"/>
<path d="M20 35.8335C19.3167 35.8335 18.75 35.2668 18.75 34.5835L18.75 5.41681C18.75 4.73348 19.3167 4.16681 20 4.16681C20.6833 4.16681 21.25 4.73348 21.25 5.41681L21.25 34.5835C21.25 35.2668 20.6833 35.8335 20 35.8335Z" fill="#386FFD"/>
<path d="M27.5 31.6668C26.8167 31.6668 26.25 31.1001 26.25 30.4168L26.25 9.58344C26.25 8.9001 26.8167 8.33344 27.5 8.33344C28.1833 8.33344 28.75 8.9001 28.75 9.58344L28.75 30.4168C28.75 31.1001 28.1833 31.6668 27.5 31.6668Z" fill="#7DF5CA"/>
<path d="M35 27.5001C34.3167 27.5001 33.75 26.9335 33.75 26.2501L33.75 13.7501C33.75 13.0668 34.3167 12.5001 35 12.5001C35.6833 12.5001 36.25 13.0668 36.25 13.7501L36.25 26.2501C36.25 26.9335 35.6833 27.5001 35 27.5001Z" fill="#386FFD"/>
</svg>
