<svg width="40" height="40" viewBox="0 0 40 40" fill="none" xmlns="http://www.w3.org/2000/svg">
<path d="M23.5495 18.9002C24.1995 16.1669 21.8161 13.7835 19.0828 14.4335C17.7995 14.7501 16.7495 15.8002 16.4329 17.0836C15.7829 19.8169 18.1661 22.2001 20.8995 21.5501C22.1995 21.2334 23.2495 20.1836 23.5495 18.9002Z" fill="#386FFD"/>
<path d="M10.0349 29.9501C9.73488 29.9501 9.41821 29.8334 9.18488 29.6168C5.95155 26.6168 4.10156 22.3834 4.10156 17.9834C4.10156 9.21674 11.2349 2.08344 20.0015 2.08344C28.7682 2.08344 35.9015 9.21674 35.9015 17.9834C35.9015 22.4168 34.1182 26.5168 30.8848 29.5668C30.3848 30.0334 29.5848 30.0168 29.1182 29.5168C28.6515 29.0168 28.6682 28.2168 29.1682 27.7501C31.9015 25.1834 33.4015 21.7334 33.4015 18.0001C33.4015 10.6168 27.3848 4.60012 20.0015 4.60012C12.6182 4.60012 6.60156 10.6168 6.60156 18.0001C6.60156 21.7668 8.11821 25.2334 10.8849 27.8001C11.3849 28.2668 11.4182 29.0668 10.9516 29.5668C10.7016 29.8168 10.3682 29.9501 10.0349 29.9501Z" fill="#7DF5CA"/>
<path d="M26.6658 25.5001C26.3658 25.5001 26.0491 25.3835 25.8158 25.1668C25.3158 24.7001 25.2825 23.9001 25.7658 23.4001C27.1491 21.9335 27.9158 20.0001 27.9158 18.0001C27.9158 13.6335 24.3658 10.1002 20.0158 10.1002C15.6658 10.1002 12.1158 13.6502 12.1158 18.0001C12.1158 20.0168 12.8825 21.9335 14.2658 23.4001C14.7325 23.9001 14.7158 24.7001 14.2158 25.1668C13.7158 25.6501 12.9158 25.617 12.4492 25.117C10.6325 23.1836 9.61584 20.6501 9.61584 18.0001C9.61584 12.2669 14.2825 7.60022 20.0158 7.60022C25.7491 7.60022 30.4158 12.2669 30.4158 18.0001C30.4158 20.6501 29.4158 23.1836 27.5825 25.117C27.3325 25.367 26.9991 25.5001 26.6658 25.5001Z" fill="#7DF5CA"/>
<path d="M17.1678 27.7668L14.7678 30.7503C12.8678 33.1336 14.5512 36.6501 17.6012 36.6501L22.3845 36.6501C25.4345 36.6501 27.1345 33.117 25.2178 30.7503L22.8178 27.7668C21.3845 25.9501 18.6178 25.9501 17.1678 27.7668Z" fill="#386FFD"/>
</svg>
