<svg width="12" height="12" viewBox="0 0 12 12" fill="none" xmlns="http://www.w3.org/2000/svg">
<path d="M9.68079 7.52302L10.991 8.8332C11.2721 9.11433 11.2721 9.57013 10.991 9.85126C9.47106 11.3712 7.06484 11.5422 5.34526 10.2525L5.24501 10.1773C3.9479 9.20447 2.79565 8.05222 1.82282 6.75511L1.74764 6.65487C0.457953 4.93529 0.628958 2.52906 2.14887 1.00915C2.42999 0.728022 2.88579 0.728022 3.16692 1.00915L4.4771 2.31933C4.86763 2.70986 4.86763 3.34302 4.4771 3.73354L3.60557 4.60508C3.4168 4.79385 3.37 5.08223 3.48939 5.321C4.17955 6.70133 5.29879 7.82057 6.67912 8.51073C6.91789 8.63012 7.20627 8.58332 7.39504 8.39455L8.26658 7.52302C8.6571 7.13249 9.29027 7.13249 9.68079 7.52302Z" fill="white"/>
</svg>
